<?xml version="1.0" standalone="no"?>
<!DOCTYPE svg PUBLIC "-//W3C//DTD SVG 20010904//EN"
 "http://www.w3.org/TR/2001/REC-SVG-20010904/DTD/svg10.dtd">
<svg version="1.0" xmlns="http://www.w3.org/2000/svg"
 width="512.000000pt" height="512.000000pt" viewBox="0 0 512.000000 512.000000"
 preserveAspectRatio="xMidYMid meet">

<g transform="translate(0.000000,512.000000) scale(0.100000,-0.100000)"
fill="#000000" stroke="none">
<path d="M391 4893 c-20 -13 -21 -23 -21 -204 l0 -189 -24 0 c-48 0 -76 -17
-76 -48 0 -38 17 -52 62 -52 l38 0 0 -200 0 -199 -66 -3 c-54 -2 -69 -7 -80
-23 -12 -18 -11 -24 2 -43 13 -19 24 -22 80 -22 l64 0 0 -200 0 -200 -38 0
c-45 0 -62 -14 -62 -52 0 -31 28 -48 76 -48 l24 0 0 -195 0 -195 -64 0 c-56 0
-67 -3 -80 -22 -20 -29 -20 -34 4 -58 16 -16 33 -20 80 -20 l60 0 0 -195 0
-195 -31 0 c-45 0 -69 -16 -69 -48 0 -38 17 -52 62 -52 l38 0 -2 -198 -3 -197
-69 -5 c-59 -4 -70 -8 -77 -26 -5 -14 -2 -29 7 -43 13 -18 25 -21 80 -21 l64
0 0 -240 0 -240 -24 0 c-48 0 -76 -17 -76 -48 0 -38 17 -52 62 -52 l38 0 0
-240 0 -240 -49 0 c-89 0 -127 -32 -94 -79 12 -18 25 -21 79 -21 l64 0 0 -193
c0 -137 3 -196 12 -205 8 -8 67 -12 200 -12 l188 0 0 -31 c0 -46 16 -69 50
-69 34 0 50 23 50 69 l0 31 195 0 195 0 0 -58 c0 -80 34 -117 79 -86 18 13 21
25 21 80 l0 64 200 0 200 0 0 -38 c0 -43 14 -62 45 -62 31 0 45 19 45 62 l0
38 200 0 200 0 0 -64 c0 -55 3 -67 21 -80 14 -9 29 -12 43 -7 18 7 22 18 26
77 l5 69 198 3 197 2 0 -38 c0 -45 14 -62 52 -62 32 0 48 24 48 69 l0 31 195
0 195 0 0 -56 c0 -70 12 -94 48 -94 42 0 52 17 52 87 l0 63 240 0 240 0 0 -31
c0 -46 16 -69 50 -69 34 0 50 23 50 69 l0 31 240 0 240 0 0 -56 c0 -71 12 -94
50 -94 38 0 50 23 50 94 l0 56 194 0 c186 0 196 1 209 21 19 27 10 58 -20 70
-13 5 -67 9 -119 9 l-94 0 0 1095 0 1095 -235 0 -235 0 0 -1095 0 -1095 -120
0 -120 0 0 760 0 760 -240 0 -240 0 0 -760 0 -760 -120 0 -120 0 0 305 0 305
-235 0 -235 0 0 -305 0 -305 -120 0 -120 0 0 885 0 885 -235 0 -235 0 0 -885
0 -885 -120 0 -120 0 0 545 0 545 -235 0 -235 0 0 -545 0 -545 -120 0 -120 0
0 950 0 950 -240 0 -240 0 0 -950 0 -950 -75 0 -75 0 0 2189 c0 1314 -4 2199
-9 2214 -12 30 -43 39 -70 20z"/>
<path d="M651 4788 c-6 -15 -5 -30 4 -43 12 -20 25 -20 663 -23 l651 -2 12 21
c8 16 8 28 0 45 l-11 24 -655 0 -656 0 -8 -22z"/>
<path d="M656 4438 c-20 -29 -20 -34 4 -58 19 -19 33 -20 341 -20 202 0 327 4
340 10 22 12 26 59 7 78 -9 9 -99 12 -344 12 -333 0 -333 0 -348 -22z"/>
<path d="M4210 4320 c-19 -19 -20 -33 -20 -230 l0 -210 235 0 235 0 0 204 c0
191 -1 205 -21 230 l-20 26 -195 0 c-181 0 -195 -1 -214 -20z"/>
<path d="M675 3951 c-45 -19 -50 -37 -53 -198 l-4 -153 242 0 241 0 -3 155
c-4 211 9 199 -226 202 -97 1 -186 -1 -197 -6z"/>
<path d="M4190 3270 l0 -510 235 0 235 0 0 510 0 510 -235 0 -235 0 0 -510z"/>
<path d="M2075 3485 c-24 -23 -25 -29 -25 -160 l0 -135 235 0 235 0 0 135 c0
131 -1 137 -25 160 -24 25 -26 25 -210 25 -184 0 -186 0 -210 -25z"/>
<path d="M622 2988 l3 -513 235 0 235 0 3 513 2 512 -240 0 -240 0 2 -512z"/>
<path d="M3503 3166 c-27 -23 -28 -29 -31 -125 l-4 -101 242 0 242 0 -4 101
c-3 96 -4 102 -31 125 -27 23 -32 24 -207 24 -175 0 -180 -1 -207 -24z"/>
<path d="M2050 2715 l0 -375 235 0 235 0 0 375 0 375 -235 0 -235 0 0 -375z"/>
<path d="M1365 2855 c-24 -24 -25 -28 -25 -185 l0 -160 235 0 235 0 0 150 c0
160 -7 191 -47 209 -14 7 -92 11 -199 11 -172 0 -175 0 -199 -25z"/>
<path d="M3470 2465 l0 -375 240 0 240 0 0 375 0 375 -240 0 -240 0 0 -375z"/>
<path d="M1340 2035 l0 -375 235 0 235 0 0 375 0 375 -235 0 -235 0 0 -375z"/>
<path d="M2781 1954 c-18 -23 -21 -41 -21 -115 l0 -89 235 0 235 0 0 95 c0
140 8 135 -234 135 l-195 0 -20 -26z"/>
<path d="M2760 1410 l0 -240 235 0 235 0 0 240 0 240 -235 0 -235 0 0 -240z"/>
</g>
</svg>
